<?xml version="1.0" standalone="no"?>
<!DOCTYPE svg PUBLIC "-//W3C//DTD SVG 20010904//EN"
 "http://www.w3.org/TR/2001/REC-SVG-20010904/DTD/svg10.dtd">
<svg version="1.0" xmlns="http://www.w3.org/2000/svg"
 width="282.000000pt" height="282.000000pt" viewBox="0 0 282.000000 282.000000"
 preserveAspectRatio="xMidYMid meet">
<metadata>
Created by potrace 1.14, written by Peter Selinger 2001-2017
</metadata>
<g transform="translate(0.000000,282.000000) scale(0.100000,-0.100000)"
fill="#000000" stroke="none">
<path d="M877 2139 c-21 -12 -21 -21 1 -47 45 -53 52 -63 66 -90 9 -17 21 -59
29 -95 11 -53 11 -64 0 -60 -7 3 -13 8 -13 12 0 5 -16 16 -35 27 -19 10 -35
23 -35 28 0 5 -3 6 -6 3 -4 -3 -14 -2 -24 3 -9 5 -32 12 -51 16 -19 3 -41 7
-49 9 -8 1 -23 -4 -32 -12 -14 -12 -15 -19 -5 -34 6 -10 16 -19 22 -19 10 0
52 -38 84 -78 11 -12 29 -47 41 -77 12 -30 27 -55 32 -55 5 0 7 -4 3 -9 -3 -5
1 -16 9 -24 12 -12 6 -14 -42 -15 -50 -1 -92 -6 -99 -12 -2 -2 -6 -3 -10 -4
-18 -4 -73 -37 -73 -44 1 -22 23 -33 74 -38 58 -4 99 -21 183 -74 27 -17 70
-37 96 -45 27 -8 64 -24 82 -35 72 -44 195 -74 300 -72 45 0 130 9 130 12 0 1
20 7 48 13 24 5 83 31 107 47 14 9 50 25 80 34 52 17 149 69 160 87 3 5 15 10
25 12 11 2 27 7 37 11 15 7 56 13 100 15 10 1 22 10 28 20 8 17 4 22 -35 41
-52 25 -93 34 -153 33 -32 0 -40 3 -32 12 5 6 7 15 3 18 -3 4 -2 7 4 7 11 0
38 50 34 64 -1 5 2 12 6 15 4 3 17 22 27 41 19 33 42 58 100 107 22 18 25 26
17 41 -9 17 -17 18 -59 11 -64 -10 -118 -33 -165 -70 l-38 -30 6 28 c3 15 7
42 11 58 8 46 39 106 73 145 33 38 37 50 20 67 -13 13 -65 -3 -121 -34 -37
-21 -97 -84 -117 -122 -8 -14 -31 -43 -52 -64 -37 -37 -38 -37 -71 -23 -75 33
-86 35 -168 39 -66 4 -152 -13 -203 -39 -27 -15 -29 -14 -67 28 -22 23 -43 50
-46 60 -3 10 -10 18 -15 18 -5 0 -9 6 -9 13 0 17 -83 88 -124 105 -63 28 -72
30 -89 21z"/>
<path d="M516 962 c-33 -64 -64 -120 -70 -124 -6 -4 -8 -8 -5 -8 4 0 -17 -45
-46 -99 -33 -64 -49 -104 -44 -113 6 -8 9 -9 9 -1 0 6 8 9 19 6 15 -4 24 7 45
51 22 47 31 56 54 57 31 1 189 1 213 0 10 -1 27 -22 40 -50 22 -46 59 -78 73
-64 10 10 7 43 -4 43 -5 0 -10 8 -10 18 0 10 -4 22 -9 28 -5 5 -48 86 -96 179
-48 94 -92 175 -98 182 -9 10 -26 -14 -71 -105z m116 -86 l47 -93 -95 1 c-52
1 -94 4 -94 8 0 12 84 178 90 178 3 0 26 -42 52 -94z"/>
<path d="M1688 977 c-12 -13 -17 -106 -8 -152 1 -6 1 -12 0 -15 -6 -17 -3
-163 4 -167 4 -3 2 -9 -5 -14 -10 -6 -4 -9 18 -9 l32 0 -2 182 c-2 184 -7 207
-39 175z"/>
<path d="M2250 980 c-12 -8 -15 -42 -16 -182 0 -95 4 -176 9 -179 5 -4 17 -5
26 -2 14 3 16 21 16 123 l0 120 30 -3 c28 -3 31 -1 33 25 1 15 -1 28 -5 27 -5
-1 -21 -1 -36 0 -25 1 -28 4 -24 31 6 33 -11 54 -33 40z"/>
<path d="M2448 977 c-3 -7 -4 -74 -3 -149 1 -94 -2 -138 -9 -138 -6 0 -5 -4 3
-9 8 -5 12 -18 8 -30 -6 -26 25 -48 40 -28 7 9 11 330 4 357 -2 11 -40 8 -43
-3z"/>
<path d="M911 901 c-18 -12 3 -84 33 -115 l24 -23 -24 -27 c-14 -14 -23 -26
-20 -26 3 0 -1 -11 -8 -25 -19 -36 -14 -71 10 -67 24 5 27 8 29 30 2 26 32 68
58 79 48 22 110 -13 125 -71 6 -22 15 -30 35 -33 26 -3 27 -2 21 24 -12 51
-24 76 -44 93 -20 17 -20 18 2 46 12 16 27 32 33 36 5 4 7 8 3 8 -4 0 -3 14 2
30 7 24 5 32 -9 39 -16 9 -44 1 -42 -13 3 -24 -2 -38 -25 -65 -20 -24 -34 -31
-62 -31 -41 1 -62 13 -83 50 -13 24 -15 30 -18 49 -2 13 -26 20 -40 12z"/>
<path d="M1369 891 c-43 -20 -52 -29 -73 -70 -27 -52 -10 -133 35 -169 41 -33
97 -43 151 -28 35 10 88 70 88 99 0 13 5 28 12 35 9 9 9 12 0 12 -7 0 -11 3
-9 8 1 4 -6 26 -16 48 -31 68 -116 98 -188 65z m109 -50 c13 -7 30 -28 38 -47
12 -29 12 -39 0 -68 -17 -41 -42 -56 -91 -56 -41 0 -83 32 -90 70 -6 33 13 90
31 90 8 0 14 4 14 9 0 21 61 22 98 2z"/>
<path d="M1938 899 c-33 -9 -77 -40 -78 -56 0 -6 -5 -13 -11 -15 -13 -4 -24
-81 -15 -105 4 -10 7 -19 6 -21 -4 -10 71 -70 99 -80 42 -15 105 0 143 33 29
25 51 90 44 129 -15 84 -104 139 -188 115z m108 -75 c30 -30 33 -39 28 -71
-14 -86 -109 -115 -166 -51 -42 47 -27 112 34 144 36 19 69 12 104 -22z"/>
</g>
</svg>
